{"title":"Alif Laila {Aladin Ka Jadui Chirag} 1-6 vcd","uid":7297447,"size":3227833320,"categoryP":"video","categoryS":"tv_shows","magnet":"?xt=urn:btih:40ce5d364597322cbc7b3cc6f4bf8373e8d9ba77&amp;dn=Alif+Laila+%7BAladin+Ka+Jadui+Chirag%7D+1-6+vcd&amp;tr=udp%3A%2F%2Ftracker.openbittorrent.com%3A80&amp;tr=udp%3A%2F%2Fopen.demonii.com%3A1337&amp;tr=udp%3A%2F%2Ftracker.coppersurfer.tk%3A6969&amp;tr=udp%3A%2F%2Fexodus.desync.com%3A6969","seeders":0,"leechers":2,"uploader":"djsunny1986","files":6,"time":1337929330,"description":"this is the only part of alif laila series:\nIn 6 vcd's \n \n\nFormat                           : CDXA/MPEG-PS\nFile size                        : 528 MiB\nDuration                         : 52mn 37s\nOverall bit rate                 : 1 412 Kbps\n\nVideo\nID                               : 224 (0xE0)\nFormat                           : MPEG Video\nFormat version                   : Version 1\nFormat settings, BVOP            : Yes\nFormat settings, Matrix          : Default\nDuration                         : 52mn 37s\nBit rate mode                    : Constant\nBit rate                         : 1 151 Kbps\nWidth                            : 352 pixels\nHeight                           : 288 pixels\nDisplay aspect ratio             : 4:3\nFrame rate                       : 25.000 fps\nStandard                         : PAL\nColor space                      : YUV\nBit depth                        : 8 bits\nScan type                        : Progressive\nCompression mode                 : Lossy\nBits/(Pixel*Frame)               : 0.454\nStream size                      : 433 MiB (82%)\n\nAudio\nID                               : 192 (0xC0)\nFormat                           : MPEG Audio\nFormat version                   : Version 1\nFormat profile                   : Layer 2\nDuration                         : 52mn 15s\nBit rate mode                    : Constant\nBit rate                         : 224 Kbps\nChannel(s)                       : 2 channels\nSampling rate                    : 44.1 KHz\nCompression mode                 : Lossy\nDelay relative to video          : -80ms\nStream size                      : 83.7 MiB (16%)\n &lt;a href=&quot;\nhttp://minus.com/mP5P8QhcM/&quot; rel=&quot;nofollow&quot; target=&quot;_NEW&quot;&gt;\nhttp://minus.com/mP5P8QhcM/&lt;/a&gt; &lt;a href=&quot;\nhttp://minus.com/mP5P8QhcM/3&quot; rel=&quot;nofollow&quot; target=&quot;_NEW&quot;&gt;\nhttp://minus.com/mP5P8QhcM/3&lt;/a&gt; &lt;a href=&quot;\nhttp://minus.com/mP5P8QhcM/7&quot; rel=&quot;nofollow&quot; target=&quot;_NEW&quot;&gt;\nhttp://minus.com/mP5P8QhcM/7&lt;/a&gt; &lt;a href=&quot;\nhttp://minus.com/mP5P8QhcM/8f&quot; rel=&quot;nofollow&quot; target=&quot;_NEW&quot;&gt;\nhttp://minus.com/mP5P8QhcM/8f&lt;/a&gt; &lt;a href=&quot;\nhttp://minus.com/mP5P8QhcM/6&quot; rel=&quot;nofollow&quot; target=&quot;_NEW&quot;&gt;\nhttp://minus.com/mP5P8QhcM/6&lt;/a&gt;\n\nenjoy &amp; seed\n","torrent":{"xt":"urn:btih:40ce5d364597322cbc7b3cc6f4bf8373e8d9ba77","amp;dn":"Alif+Laila+%7BAladin+Ka+Jadui+Chirag%7D+1-6+vcd","amp;tr":["udp%3A%2F%2Ftracker.openbittorrent.com%3A80","udp%3A%2F%2Fopen.demonii.com%3A1337","udp%3A%2F%2Ftracker.coppersurfer.tk%3A6969","udp%3A%2F%2Fexodus.desync.com%3A6969"],"infoHash":"40ce5d364597322cbc7b3cc6f4bf8373e8d9ba77","infoHashBuffer":{"type":"Buffer","data":[64,206,93,54,69,151,50,44,188,123,60,198,244,191,131,115,232,217,186,119]},"announce":[],"urlList":[]}}